{"title":"7/7 Ten Years On PDTV x264-TASTETV","uid":12075346,"size":169342540,"categoryP":"video","categoryS":"tv_shows","magnet":"?xt=urn:btih:8d11f53a4daea1f8f833675864f3a8391df753bd&amp;dn=7%2F7+Ten+Years+On+PDTV+x264-TASTETV&amp;tr=udp%3A%2F%2Ftracker.openbittorrent.com%3A80&amp;tr=udp%3A%2F%2Fopen.demonii.com%3A1337&amp;tr=udp%3A%2F%2Ftracker.coppersurfer.tk%3A6969&amp;tr=udp%3A%2F%2Fexodus.desync.com%3A6969","seeders":0,"leechers":0,"uploader":"Mulva1989","files":2,"time":1435625011,"description":"7/7 Ten Years On PDTV x264-TASTETV\n\nHard to believe it's ten years since the London bombings, when a series of suicide attacks killed 52 people using public transport during the morning rush hour, just one day after the Olympic games were awarded to London. This documentary hears stories from those bereaved as well as stories of bravery in the aftermath of what became knows as 7/7.\n\nScreens @ &lt;a href=&quot;\nhttps://yuq.me/users/50/321/hdsRAElCTz.jpg&quot; rel=&quot;nofollow&quot; target=&quot;_NEW&quot;&gt;\nhttps://yuq.me/users/50/321/hdsRAElCTz.jpg&lt;/a&gt; &lt;a href=&quot;\nhttps://yuq.me/users/50/321/ucBRx6GFML.jpg&quot; rel=&quot;nofollow&quot; target=&quot;_NEW&quot;&gt;\nhttps://yuq.me/users/50/321/ucBRx6GFML.jpg&lt;/a&gt; &lt;a href=&quot;\nhttps://yuq.me/users/50/321/1ybZR6ChE3.jpg&quot; rel=&quot;nofollow&quot; target=&quot;_NEW&quot;&gt;\nhttps://yuq.me/users/50/321/1ybZR6ChE3.jpg&lt;/a&gt;\n\nFormat : MPEG-4\nFormat profile : Base Media\nCodec ID : isom\nFile size : 161 MiB\nDuration : 43mn 54s\nOverall bit rate mode : Variable\nOverall bit rate : 514 Kbps\nEncoded date : UTC 2015-06-29 21:52:03\nTagged date : UTC 2015-06-29 21:52:03\n\nVideo\nID : 1\nFormat : AVC\nFormat/Info : Advanced Video Codec\nFormat profile : &lt;a class=&quot;__cf_email__&quot; href=&quot;/cdn-cgi/l/email-protection&quot; data-cfemail=&quot;8ec6e7e9e6cec2bda0bf&quot;&gt;[email&amp;#160;protected]&lt;/a&gt;&lt;script data-cfhash='f9e31' type=&quot;text/javascript&quot;&gt;\n/* &lt;![CDATA[ */!function(){try{var t=&quot;currentScript&quot;in document?document.currentScript:function(){for(var t=document.getElementsByTagName(&quot;script&quot;),e=t.length;e--;)if(t[e].getAttribute(&quot;data-cfhash&quot;))return t[e]}();if(t&amp;&amp;t.previousSibling){var e,r,n,i,c=t.previousSibling,a=c.getAttribute(&quot;data-cfemail&quot;);if(a){for(e=&quot;&quot;,r=parseInt(a.substr(0,2),16),n=2;a.length-n;n+=2)i=parseInt(a.substr(n,2),16)^r,e+=String.fromCharCode(i);e=document.createTextNode(e),c.parentNode.replaceChild(e,c)}t.parentNode.removeChild(t);}}catch(u){}}()/* ]]&gt; */&lt;/script&gt;\nFormat settings, CABAC : Yes\nFormat settings, ReFrames : 5 frames\nCodec ID : avc1\nCodec ID/Info : Advanced Video Coding\nDuration : 43mn 54s\nBit rate : 369 Kbps\nMaximum bit rate : 2 027 Kbps\nWidth : 540 pixels\nHeight : 296 pixels\nDisplay aspect ratio : 1.85:1\nFrame rate mode : Constant\nFrame rate : 25.000 fps\nColor space : YUV\nChroma subsampling : 4:2:0\nBit depth : 8 bits\nScan type : Progressive\nBits/(Pixel*Frame) : 0.092\nStream size : 116 MiB (72%)\nTitle : Video\nWriting library : x264 core 146 r2538 121396c\nEncoding settings : cabac=1 / ref=5 / deblock=1:0:0 / analyse=0x3:0x113 / me=umh / subme=8 / psy=1 / psy_rd=1.00:0.00 / mixed_ref=1 / me_range=16 / chroma_me=1 / trellis=1 / 8x8dct=1 / cqm=0 / deadzone=21,11 / fast_pskip=1 / chroma_qp_offset=-2 / threads=3 / lookahead_threads=1 / sliced_threads=0 / nr=0 / decimate=1 / interlaced=0 / bluray_compat=0 / constrained_intra=0 / bframes=3 / b_pyramid=2 / b_adapt=2 / b_bias=0 / direct=3 / weightb=1 / open_gop=0 / weightp=2 / keyint=250 / keyint_min=25 / scenecut=40 / intra_refresh=0 / rc_lookahead=50 / rc=crf / mbtree=1 / crf=21.0 / qcomp=0.60 / qpmin=0 / qpmax=69 / qpstep=4 / ip_ratio=1.40 / aq=1:1.00\nEncoded date : UTC 2015-06-29 21:52:03\nTagged date : UTC 2015-06-29 21:52:22\n\nAudio\nID : 2\nFormat : AAC\nFormat/Info : Advanced Audio Codec\nFormat profile : LC\nCodec ID : 40\nDuration : 43mn 54s\nBit rate mode : Variable\nBit rate : 144 Kbps\nMaximum bit rate : 179 Kbps\nChannel(s) : 2 channels\nChannel positions : Front: L R\nSampling rate : 48.0 KHz\nCompression mode : Lossy\nStream size : 44.4 MiB (27%)\nTitle : \nEncoded date : UTC 2015-06-29 21:06:44\nTagged date : UTC 2015-06-29","torrent":{"xt":"urn:btih:8d11f53a4daea1f8f833675864f3a8391df753bd","amp;dn":"7%2F7+Ten+Years+On+PDTV+x264-TASTETV","amp;tr":["udp%3A%2F%2Ftracker.openbittorrent.com%3A80","udp%3A%2F%2Fopen.demonii.com%3A1337","udp%3A%2F%2Ftracker.coppersurfer.tk%3A6969","udp%3A%2F%2Fexodus.desync.com%3A6969"],"infoHash":"8d11f53a4daea1f8f833675864f3a8391df753bd","infoHashBuffer":{"type":"Buffer","data":[141,17,245,58,77,174,161,248,248,51,103,88,100,243,168,57,29,247,83,189]},"announce":[],"urlList":[]}}